<svg xmlns="http://www.w3.org/2000/svg" xmlns:xlink="http://www.w3.org/1999/xlink" viewBox="0 0 1369.59 737.73"><defs><style>.cls-1,.cls-2,.cls-9{fill:#fff;}.cls-1,.cls-4,.cls-5,.cls-6,.cls-7,.cls-8{stroke-miterlimit:10;stroke-width:2px;}.cls-1{stroke:url(#linear-gradient);}.cls-3{fill:#4c3127;}.cls-4,.cls-5,.cls-6,.cls-7,.cls-8{fill:none;stroke:#000;}.cls-5{stroke-dasharray:7.55 7.55;}.cls-6{stroke-dasharray:8.31 8.31;}.cls-7{stroke-dasharray:7.67 7.67;}.cls-8{stroke-dasharray:7.95 7.95;}.cls-9{font-size:173.81px;}.cls-10,.cls-9{font-family:AgencyFB-Reg, Agency FB;}.cls-10{font-size:40.26px;}</style><linearGradient id="linear-gradient" x1="-1.83" y1="612.84" x2="1367.75" y2="612.84" gradientUnits="userSpaceOnUse"><stop offset="0.18"/><stop offset="0.25" stop-color="#fff"/><stop offset="0.49" stop-color="red"/><stop offset="0.72" stop-color="#fff"/><stop offset="0.81" stop-color="lime"/></linearGradient></defs><g id="Nai_Silhouette" data-name="Nai Silhouette"><path class="cls-1" d="M-.83,746.94c4.17-.33,8.35-.08,12.53-.16.77,0,1.55,0,2.33-.06.93-.08,1.49-.43,1-1.51a3.25,3.25,0,0,1-.07-2.28c.56-2.12.13-4.25.1-6.37,0-.75-.4-1.58-.05-2.26a3,3,0,0,0,.08-2.76.41.41,0,0,1-.05-.28c1-1.75.32-3.6.37-5.42a42.4,42.4,0,0,0,.06-7.39c-.24-1.66.89-3.36,0-5.06,1.17-1.95-.22-4,.42-6.16a11.88,11.88,0,0,0,.17-4.72c-.32-2.11.57-4.08,0-6.21-.35-1.3.41-2.9,0-4.44-.26-1,.41-1.6,1.42-1.85.62-.14,1.38.06,1.86-.63-.41-.83-1.19-.45-1.79-.51-1.14-.12-1.83-.62-1.89-1.79s.59-1.7,1.72-1.92c2.27-.45,2.26-.5,2.23-2.79,0-1.94.37-2.46,2.34-2.5,4.08-.07,8.16,0,12.24,0,5.84,0,11.67,0,17.5,0,3.3,0,3.64.35,3.18,3.49-.32,2.16.14,4.26.23,6.38.27,6.4.51,12.81.77,19.21,0,.67,0,1.36.07,2,.25,2.8.59,3.15,3.37,3.16,5.15,0,10.3,0,15.45,0,.78,0,1.55,0,2.33.09a1.22,1.22,0,0,1,1.25,1c.19,1.89.84,3.85-.66,5.54a2.8,2.8,0,0,0-.51.69c-.51,1.24,1.31,1.94.75,3.24-.38.9-1.45,1.74-.42,2.87.51.56.76,1.43.35,1.87-1.71,1.83.16,2.92.74,4.27a1,1,0,0,0,1.17.65,1.07,1.07,0,0,0,.89-1c.08-.77.11-1.55.12-2.32V701.63c0-1.84.17-3.68-1.71-5-.79-.54-.23-1.25.57-1.42A12.72,12.72,0,0,1,82,695c2.14,0,4.28,0,6.41-.06,3.42,0,3.53-.16,3.56-3.68V691q0-14.13,0-28.25a6.59,6.59,0,0,0-.23-2.87c-1-1.82-1.34-3.08,1.19-3.89,1-.3.72-1.7.72-2.65,0-5.83,0-11.66,0-17.48,0-.88,0-1.75.08-2.62.06-.69.23-1.44,1.08-1.5,1.07-.07,1.22.78,1.29,1.58s.05,1.55.05,2.33c0,5.92,0,11.84,0,17.77,0,2.25.17,2.33,2.32,2.08a14.69,14.69,0,0,1,1.74-.19c2.24,0,3.69-1,4.16-3.26a1.66,1.66,0,0,1,.74-1.24c1.09-.06,1.1.94,1.35,1.57a2.41,2.41,0,0,0,2.69,1.72c2-.18,4.07-.35,6.1-.48,1.17-.07,1.66-.81,2-1.78.44-1.14.5-2.47,1.51-3.36,1.2.45,1.25,1.55,1.53,2.4a3.71,3.71,0,0,0,3.72,3c2.7.18,5.45.1,8.11.8a15.43,15.43,0,0,1,1.69.41c.71.28,1.26.86.59,1.55-1.12,1.13-.91,2.5-.92,3.83q0,16,0,32.05c0,.58,0,1.16,0,1.74,0,1.35.69,1.93,2,1.92l4.08,0c1.85,0,3.69,0,5.54,0,.66,0,1.45,0,1.71.78s-.35,1-.84,1.33a2.42,2.42,0,0,0-.89,2.33c0,10.58,0,21.17,0,31.75,0,1.78.53,2.24,2,2.23,1.66,0,1.82-1.11,1.82-2.37,0-4.28,0-8.55,0-12.82q0-16.47,0-32.92c0-.87,0-1.75.06-2.62a1.6,1.6,0,0,1,1.66-1.67c2.28-.11,4.38-.41,5.74-2.67a1.35,1.35,0,0,1,2.26.1c1.66,2.16,4,2.47,6.46,2.52,2.93.05,3.07.22,3.22,3.16.16,3.2.18,3.24,3.37,3.26s6.22,0,9.33,0c1.22,0,1.74-.25,1.73-1.85-.05-7.23.18-14.46-.14-21.68-.06-1.28.44-1.8,1.58-1.93a16.87,16.87,0,0,1,1.74-.07c7.39,0,14.78,0,22.16,0,3.24,0,3.46.25,3.47,3.51,0,6.31,0,12.62,0,18.93,0,2.46.41,3.15,1.72,3,1.94-.23,1.43-1.81,1.43-3q0-23.6,0-47.19c0-1.88-.45-3.86,1.88-5,.87-.43.49-1.79.5-2.74q.09-11.66.16-23.3a11.13,11.13,0,0,1,.74-5.13,7.19,7.19,0,0,0,.27-3.17c0-3.11,0-6.21.07-9.32,0-.48.11-1,.69-1.14.81-.13,1,.54,1,1.1a25.65,25.65,0,0,1,.1,2.91c-.18,8.14,1.16,16.24.76,24.4-.1,2,.34,2.25,2.47,2.26a16.88,16.88,0,0,0,1.74-.08c2.73-.3,3.17-.74,3.21-3.43,0-3,0-6,0-9,0-2.22-.1-4.42.78-6.6.44-1.1.19-2.49.2-3.74,0-2.92,0-5.83.09-8.74,0-.52.27-1,.86-.94a.83.83,0,0,1,.72.81,28.28,28.28,0,0,1,.2,3.18c-.12,8.54,1.22,17,.79,25.56-.1,2.05.24,2.32,2.07,2.41,4.56.23,9.12.44,13.68.55,2.33.06,2.7-.21,2.58-2.43-.43-8,1.12-15.85.78-23.81a5,5,0,0,1,.33-2.57,1,1,0,0,1,.64-.47.83.83,0,0,1,.64.47,9.6,9.6,0,0,1,.25,2c0,2.23,0,4.47,0,6.7a13.66,13.66,0,0,0,.74,5.72,7.52,7.52,0,0,1,.26,2.87c0,3.11,0,6.22.05,9.32,0,1.87.4,2.15,2.24,2.34.68.07,1.36.05,2,.09,3.7.24,3.86.23,3.68-3.32-.42-8.16,1.17-16.24.78-24.39a3.61,3.61,0,0,1,0-.87c.13-.63.06-1.57,1-1.48s.79,1,.8,1.64c.05,1.84,0,3.69.05,5.53.06,2.7-.33,5.42.83,8a5.73,5.73,0,0,1,.16,2.59c-.5,8,1.17,15.85.79,23.8-.05,1,0,2,1.27,2.29,1.5.31,1.68,1.4,1.66,2.65,0,.87,0,1.74,0,2.62v58.84c0,.78,0,1.56,0,2.33.06,2.75.21,2.9,3.05,3,1.75,0,3.5-.05,5.25.06,2.51.16,3.15,1.11,2.12,3.39-.52,1.16-.56,2,.4,2.83a2,2,0,0,1,.49.71c.1.26.24.68.12.84-1.35,1.84,1.33,4.12-.86,5.82,1.41,1.16,2.92.72,4.32.76a1.46,1.46,0,0,0,1.64-1.61q0-1.46,0-2.91V591.29c0-1,0-1.94,0-2.91.07-2.63.07-2.71,2.7-3,1.36-.15,1.92-.73,1.88-2,0-.49,0-1,0-1.46.06-10-.2-20,.27-30,.46-9.71.14-19.41.51-29.11a11.34,11.34,0,0,1,.22-2,1.58,1.58,0,0,1,3.1,0,22.47,22.47,0,0,1,.25,3.18c.1,2.38-.42,4.82,1.37,6.94.47.54.32,1.68.32,2.54,0,4.08,0,8.16,0,12.24,0,1.26,0,2.5,1.16,3.41.87.68.69,1.76.7,2.72,0,3.69,0,7.38,0,11.07,0,2.6.26,2.79,2.84,2.88,4,.14,8-.28,11.93.37,2.44.4,2.59.48,2.66,2.9.06,1.94,0,3.88.05,5.82,0,1.34.7,2,2,1.89,2.53-.23,5.12.47,7.38-1.75,1.7-1.66,5.36-1,7.27.55a2.93,2.93,0,0,1,.87,2.35c.24,2.94.25,3,3.3,3,5.44,0,10.89.08,16.33-.16,3.88-.17,6.84,1.91,10.05,3.43.9.42,1,1.35,1.05,2.25,0,1.46,0,2.92.07,4.37.11,2,.43,2.38,2.46,2.42q6,.12,11.95,0a17.62,17.62,0,0,1,7.38,1.38c3.12,1.35,6.3,2.55,9.49,3.75a2.77,2.77,0,0,1,2.08,3.07c-.07,1,0,1.94,0,2.91V712.63c0,4.72-.24,4.41,4.45,4.41,3.11,0,6.22,0,9.33,0,1.42,0,2.15-.49,2.19-2,.05-2.11-.18-2.57-1.89-2.89-2.39-.44-2.47-.53-2.56-2.95,0-.29,0-.58,0-.87.06-3,.38-3.39,3.35-3.41,5.64,0,11.28,0,16.91,0,.78,0,1.56,0,2.33,0,.49,0,1.15,0,1.32-.47,1-2.49,3.1-1.88,4.95-1.89,8.65,0,17.3,0,26,0,1,0,2.11.27,3-.45-.2-.95-.87-.85-1.42-.9-.88-.09-1.47-.44-1.54-1.41a1.5,1.5,0,0,1,1.46-1.79c.91-.13,1.75-.31,1.86-1.45.14-1.32-.12-2.32-1.72-2.43a1.51,1.51,0,0,1-1.61-1.67c0-1.12.71-1.51,1.7-1.55,1.24-.06,1.67-.76,1.67-1.91a1.73,1.73,0,0,0-1.69-2A1.69,1.69,0,0,1,464,685a1.65,1.65,0,0,1,1.7-1.64,1.72,1.72,0,0,0,1.71-1.94c0-1.16-.45-1.84-1.67-1.91-1-.06-1.68-.47-1.7-1.58s.59-1.57,1.61-1.67c.81-.08,1.51-.28,1.71-1.25a1.86,1.86,0,0,0-1.59-2.51c-.93-.25-1.67-.49-1.76-1.58s.58-1.78,1.67-2,1.75-.75,1.69-2-.74-1.48-1.7-1.62-1.63-.58-1.67-1.67a1.67,1.67,0,0,1,1.71-1.92,1.68,1.68,0,0,0,1.7-1.92c0-1.18-.49-1.83-1.7-1.89-1-.06-1.66-.51-1.67-1.6a1.48,1.48,0,0,1,1.6-1.66,1.63,1.63,0,0,0,1.77-1.83c0-1.14-.39-1.87-1.62-2a1.68,1.68,0,0,1-1.79-1.84,1.63,1.63,0,0,1,1.59-1.74c1.08-.17,1.81-.61,1.79-1.86s-.9-1.58-1.9-1.8a1.65,1.65,0,0,1-1.47-1.85,1.59,1.59,0,0,1,1.68-1.63,1.65,1.65,0,0,0,1.72-1.89c0-1.16-.47-1.82-1.68-1.91a1.57,1.57,0,0,1-1.6-1c-.37-1.06.08-1.9,1.51-2.19,1.13-.23,1.76-.63,1.77-1.85s-.37-1.87-1.6-2-1.82-.6-1.81-1.84.79-1.67,1.85-1.81c1.23-.16,1.57-.94,1.56-2s-.7-1.7-1.84-1.77a1.45,1.45,0,0,1-1.53-1.7,1.43,1.43,0,0,1,1.45-1.51c1.29-.08,1.94-.64,1.93-2s-.88-1.77-2.06-1.9a1.46,1.46,0,0,1-1.35-1.61,1.55,1.55,0,0,1,1.24-1.72l.84-.24a1.57,1.57,0,0,0,1.28-1.7,1.48,1.48,0,0,0-1.26-1.68l-.57-.12A1.64,1.64,0,0,1,464,605.9a1.59,1.59,0,0,1,1.56-1.75,1.79,1.79,0,0,0,1.85-2.09c0-1.24-.7-1.7-1.83-1.78a1.47,1.47,0,0,1-1.54-1.71,1.4,1.4,0,0,1,1.45-1.5c1.28-.07,2-.62,1.93-2a1.68,1.68,0,0,0-1.76-1.86,1.62,1.62,0,0,1-1.66-1.67c-.07-1.23.63-1.75,1.72-1.92s1.63-.57,1.65-1.67a1.64,1.64,0,0,0-1.46-1.85c-.19,0-.37-.1-.56-.14a1.61,1.61,0,0,1-1.34-1.66,1.55,1.55,0,0,1,1.53-1.76,1.75,1.75,0,0,0,1.87-2c0-1.24-.68-1.72-1.82-1.8A1.49,1.49,0,0,1,464,577a1.37,1.37,0,0,1,1.43-1.5c1.29,0,2-.59,1.95-2a1.71,1.71,0,0,0-1.74-1.9A1.65,1.65,0,0,1,464,570a1.69,1.69,0,0,1,1.7-1.94,1.71,1.71,0,0,0,1.71-1.93c0-1.16-.46-1.84-1.68-1.9-1-.05-1.68-.46-1.69-1.57a1.52,1.52,0,0,1,1.59-1.69c.81-.08,1.51-.27,1.72-1.24a1.86,1.86,0,0,0-1.56-2.52c-.92-.25-1.7-.46-1.75-1.58-.06-1.28.74-1.66,1.84-1.73s1.5-.71,1.53-1.73-.31-1.9-1.54-2.08c-1-.15-1.87-.53-1.87-1.79s.78-1.69,1.84-1.83c1.22-.15,1.59-.92,1.57-2s-.44-1.67-1.52-1.75-1.9-.46-1.85-1.74,1-1.49,2-1.59c.38,0,.78-.1.91-.59,0-.85-.74-.67-1.25-.83-1.95-.58-2.61-2.71-1-3.9,1.39-1,1.45-1.76.59-3.08a4,4,0,0,1-.28-2c0-2.5.3-2.93,2.8-2.92,3.7,0,7.39,0,10.95-1.22.54-.19,1.11-.32,1.65-.54a1.57,1.57,0,0,0,1-1.62,1.48,1.48,0,0,0-1-1.58,22.58,22.58,0,0,0-2.25-.59L459,516.41c-1-.22-2.3-.24-2.59-1.5a6.7,6.7,0,0,1,.15-4.29c.42-.93,1.46-.84,2.32-.85,2.34,0,4.67,0,7,0,3,0,3-.05,3.36-3,.26-2.13.65-2.53,2.93-2.86a115,115,0,0,1,14.23-1.07q12.83-.26,25.66,0a115,115,0,0,1,14.22,1.06c2.39.35,2.72.71,3,3.11.3,2.63.36,2.71,3,2.76,2.33,0,4.67,0,7,0s2.81.34,3,2.2c.29,3.12-.08,3.89-2.43,4.37-6.85,1.4-13.71,2.75-20.57,4.12L517,521c-.8.16-1.54.42-1.57,1.41A1.59,1.59,0,0,0,516.8,524c3.21.74,6.3,2,9.67,2,1.55,0,3.11,0,4.66,0,2,.1,2.29.47,2.36,2.5a4.13,4.13,0,0,1-.1,1.73c-.69,1.58-1.17,2.79.77,4.1,1.27.85.38,3-1.22,3.53-.53.17-1.21,0-1.4.77.21.76.87.67,1.42.73a1.52,1.52,0,0,1,1.56,1.71,1.45,1.45,0,0,1-1.45,1.51c-.78.09-1.56.15-1.84,1.11a2,2,0,0,0,1.39,2.68c1,.3,1.89.49,1.94,1.76s-.67,1.75-1.77,1.89a1.73,1.73,0,0,0-1.65,2c0,1.17.5,1.82,1.71,1.87,1,0,1.67.49,1.67,1.59s-.64,1.57-1.65,1.64a1.65,1.65,0,0,0-1.73,1.88c0,1.16.46,1.84,1.68,1.92,1,.06,1.67.5,1.7,1.59a1.46,1.46,0,0,1-1.58,1.67c-1.16,0-1.79.58-1.79,1.8s.39,1.86,1.6,2a1.86,1.86,0,0,1,1.66,1,1.78,1.78,0,0,1-1.43,2.57c-1.25.3-1.88.82-1.84,2.14s.69,1.71,1.84,1.76a1.46,1.46,0,0,1,1.54,1.7,1.42,1.42,0,0,1-1.44,1.51c-1.28.09-2,.63-1.94,2s.88,1.77,2.05,1.91a1.46,1.46,0,0,1,1.35,1.61,1.57,1.57,0,0,1-1.22,1.73l-.85.23a1.54,1.54,0,0,0-1.28,1.68,1.51,1.51,0,0,0,1.25,1.7l.57.12a1.65,1.65,0,0,1,1.55,1.78,1.57,1.57,0,0,1-1.55,1.75,1.78,1.78,0,0,0-1.87,2.07c0,1.23.68,1.72,1.82,1.79a1.48,1.48,0,0,1,1.56,1.7,1.4,1.4,0,0,1-1.43,1.51c-1.27.08-2,.6-2,2a1.71,1.71,0,0,0,1.75,1.88,1.64,1.64,0,0,1,1.67,1.67c.06,1.21-.61,1.77-1.72,1.93s-1.62.55-1.66,1.65.67,1.72,1.74,1.94,1.62.62,1.63,1.72-.7,1.72-1.81,1.8-1.61.88-1.59,2a1.55,1.55,0,0,0,1.51,1.76,3.85,3.85,0,0,1,1.12.29,1.4,1.4,0,0,1,.74,1.46,1.29,1.29,0,0,1-.86,1.37c-1,.32-2.38.07-2.52,1.81-.18,2,1.37,1.94,2.56,2.48a1.76,1.76,0,0,1,0,3.07,1.39,1.39,0,0,1-.55.19c-1.2.12-2,.57-2,2s.7,1.89,2,1.95a1.37,1.37,0,0,1,1.41,1.52,1.53,1.53,0,0,1-1.58,1.7c-.8.07-1.51.25-1.73,1.22a1.86,1.86,0,0,0,1.55,2.53c1.07.28,1.81.63,1.79,1.86s-.71,1.54-1.65,1.72-1.77.7-1.72,1.93.72,1.5,1.68,1.65,1.78.73,1.7,2a1.61,1.61,0,0,1-1.68,1.64,1.66,1.66,0,0,0-1.73,1.89c0,1.15.43,1.85,1.66,1.92,1,0,1.68.46,1.71,1.57A1.47,1.47,0,0,1,533,658c-1.14.07-1.82.55-1.79,1.79a1.78,1.78,0,0,0,1.68,2,1.89,1.89,0,0,1,1.82,1.91,4.34,4.34,0,0,0,1.64,2.66c2.13,2.13,4.26,4.27,6.4,6.39a6.54,6.54,0,0,0,6.13,1.06,1.13,1.13,0,0,0,.69-1.16,1.08,1.08,0,0,0-.85-1,8.11,8.11,0,0,0-.86-.14c-2.68-.42-2.73-.43-2.79-3,0-2.14-.06-4.28,0-6.41s.37-2.49,2.54-2.64c.49,0,1,0,1.46,0a1.65,1.65,0,0,0,1.79-1.83c0-1.46,0-2.91.11-4.37a1.79,1.79,0,0,1,2-1.92c.58,0,1.16,0,1.75,0h35c.39,0,.78,0,1.16,0,2.24.11,2.56.35,2.63,2.53.08,2.62,0,5.25,0,7.87,0,2.84.17,3,3,3,5.1.13,5.1.13,5.1-5,0-3.3,0-6.6,0-9.9.05-2.48.44-2.84,2.92-2.93,2-.07,4.08,0,6.13,0,2.75-.06,3-.28,3-3q0-14.41,0-28.84c0-.87,0-1.74,0-2.62a2.14,2.14,0,0,1,2.18-2.48c5.68-.71,11.36-1.51,17-2.24,1.82-.23,3.66-.37,5.5-.56s2.12-.42,2.21-2.33c.08-1.65,0-3.31,0-5,0-2.23,0-4.46,0-6.7,0-2.89.37-3.28,3.14-3.3q9.33-.08,18.66,0c2.84,0,3.18.4,3.23,3.22s0,5.63,0,8.44c0,1.5.26,2.7,2,3,1,.19,1.35,1,1.4,2s.06,1.75.06,2.62q0,14,0,28c0,.87,0,1.75,0,2.62.06,1.38.9,1.78,2.15,1.76a1.59,1.59,0,0,0,1.79-1.79,3.61,3.61,0,0,1,0-.87c.78-3.11,2.18-4.21,4.64-4.15,6.32.15,12.64,0,19,0,.88,0,1.75,0,2.63-.06a1.75,1.75,0,0,0,1.8-1.87c.05-1.07,0-2.14.1-3.21.16-2,.5-2.38,2.46-2.49,1.65-.09,3.3,0,4.95,0a2.1,2.1,0,0,1,2.37,2.31c0,.29,0,.59,0,.88.19,2.84.18,2.88,2.88,3.2a2.68,2.68,0,0,1,2.41,1.33,1.41,1.41,0,0,0,1.11.86c2.53.12,2.52,1.84,2.52,3.7,0,4,0,4,4.06,4q11.67,0,23.33,0c3.14,0,3.31-.15,3.26-3.3-.17-9.8-.38-19.6-.58-29.4,0-.78,0-1.56,0-2.33a2.64,2.64,0,0,1,2.13-3c4-1.28,7.93-2.63,11.88-4,1.31-.45,2.31-.46,2.48,1.26.14,1.42,1,1.68,2.26,1.49a33.28,33.28,0,0,0,7.35-1.72C779.16,601,782.11,600,785,599c1.15-.4,2.28-1.11,3.42.24.51.6,1.34.08,1.86-.3,3.48-2.56,6.72-1.83,10.21.22a97.33,97.33,0,0,0,10.25,4.9,3.75,3.75,0,0,1,2.56,4.28c-.77,9.38-1.45,18.76-2.12,28.15-.49,6.77-.88,13.56-1.35,20.33-.28,4.16-.63,8.32-1,12.48a11.75,11.75,0,0,0,0,3.19.92.92,0,0,0,.77.77.94.94,0,0,0,1.08-.75,2.84,2.84,0,0,0,.16-.86c-.06-2,.21-3.71,2.91-3.62.92,0,1.19-.89,1.22-1.71.06-1.26.06-2.53.12-3.79a1.85,1.85,0,0,1,2-2c1.06-.05,2.12-.31,3.19-.33,12.52-.31,25-1.06,37.59-.76,2.88.06,3.08.26,3.19,3.19.15,3.87.15,3.87,3.94,3.9l6.13,0c1.52,0,2.23.68,2.35,2.28.23,2.9.32,2.92,3.34,2.93,5.54,0,11.08,0,16.62,0,3.14,0,3.33.24,3.37,3.3,0,1.36,0,2.72,0,4.08-.08,2.11-.22,2.24-2.29,2.6-2.31.41-2.92,1.29-2.51,3.53.15.88.69,1.22,1.44,1.62,1.61.87,1.65,2,.07,2.94-.83.47-1.5.88-1.51,1.89,0,1.45-.3,2.92.3,4.31.2.47.71.62,1.19.76a10.74,10.74,0,0,0,3.14.56c5.05,0,10.11,0,15.16,0a6.55,6.55,0,0,0,3.6-1c1.11-.7,1.09-1.3,0-2.22-1.72-1.49-1.79-1.66-.16-3,1.09-.89,1.36-1.44.05-2.39-1.58-1.16-1.53-1.65-.21-2.87s1.42-1.3.1-2.5-1.52-1.78,0-2.86c1.26-.88,1.3-1.42.14-2.39-1.68-1.41-1.69-1.71,0-3,1.08-.81,1.13-1.39.18-2.28-1.72-1.64-1.74-1.71-.09-3.12,1-.84,1-1.45,0-2.32-1.67-1.42-1.66-1.49,0-3.11.92-.87,1-1.46-.14-2.29-1.71-1.27-1.64-1.39,0-2.95,1.21-1.15,1.21-1.2-.16-2.37s-1.45-1.57,0-2.89,1.31-1.21-.1-2.47-1.37-1.83-.07-2.74,1.79-1.4.13-2.43c-1.41-.87-1.06-2.4-.73-3.71s1.63-1.15,2.66-1.15c5.25,0,10.49,0,15.74,0,3.36,0,3.39,0,3.39-3.46q0-36.84,0-73.7V503.26c0-.87,0-1.75,0-2.62.11-2.25.18-2.45,2.51-2.63,1.71-.12,2.1-.94,2.09-2.43,0-5.44.17-4.85-4.59-4.89-3.09,0-3.94-1.12-3.32-4.16.17-.82.5-1.52,1.39-1.66,1.79-.26,2-1.49,2-3s0-3,2-3.34c.78-.14.84-1,.89-1.67s0-1.55.09-2.32a2.07,2.07,0,0,1,1.94-2.16c5.18-.75,10.25-2.22,15.54-2.3,2.47,0,2.94-.3,3.37-2.68a7.06,7.06,0,0,1,2.2-4c1.31-1.3,2.54-2.68,3.78-4.05a4.48,4.48,0,0,1,3.56-1.64c9.91.07,19.83.06,29.74.14,2.26,0,2.63.28,3.23,2.56a5.14,5.14,0,0,0,3.46,3.94c1.14.39,2.1,1,2.16,2.43.05,1.1.82,1.45,1.8,1.46l4.38,0c1.63,0,3.28-.23,4.58,1.25.6.68,1.66.42,2.52.43,2.82,0,5.64,0,8.46,0,2,.05,2.37.39,2.51,2.37.09,1.26,0,2.52,0,3.79s.15,2.28,1.65,2.66c1.35.35,1.24,1.61,1.24,2.66,0,1.67.15,3,2.22,3.46,1.19.27,1.48,1.92,1.19,3.81-.23,1.47-1.13,1.9-2.45,1.89s-2.34,0-3.5,0a1.7,1.7,0,0,0-1.94,2c0,.87,0,1.75,0,2.62.06,2.3.06,2.42,2.41,2.63,1.68.15,2.15,1,2.15,2.47,0,1.07,0,2.13,0,3.2V729.09c0,1.06,0,2.13,0,3.2.11,2,.5,2.34,2.78,2.35s2.62-.29,2.73-2.37c0-.59,0-1.17,0-1.75q0-34.38,0-68.75c0-1.53.21-3.1-.74-4.52-.46-.69-.47-1.76.36-2,1.63-.53,1.5-2.43,2.81-3.18.61-.35.48-1.22.48-1.9,0-5.53,0-11.07,0-16.6a2.36,2.36,0,0,0-1.7-2.63c-1.3-.51-1.3-1.81-.26-2.8.13-.13.44-.13.5-.26,1.05-2.44,2.92-3.23,5.48-3,.91.1,1.32-.69,1.38-1.55a4.47,4.47,0,0,1,1.3-3.42c.61-.53.45-1.45.47-2.22,0-1.45,0-2.91,0-4.37,0-.67.09-1.53,1-1.57s.93.84,1,1.51c0,1.45,0,2.91,0,4.36,0,1.07-.09,2.15,1,2.89.83.58.74,1.54.72,2.4,0,1.49.67,2.13,2.13,2.07.68,0,1.36,0,2,0a1.8,1.8,0,0,1,2,1.29,3,3,0,0,0,1.12,1.61c1.5,1.22,1.51,2.22-.1,3a2.39,2.39,0,0,0-1.41,2.55c0,5.54,0,11.07,0,16.6,0,2.11,1.49,3.45,2.83,4.74.85.82,1.19,1.53.63,2.51a7.13,7.13,0,0,0-.56,3.69q0,30.3,0,60.6c0,.48,0,1,0,1.45,0,1.45.62,2.18,2.09,2.13.3,0,.59,0,.88,0,6.71,0,13.41,0,20.12,0,2.6,0,2.8-.22,2.81-2.85q0-14.85,0-29.71c0-2.14,0-4.28,0-6.41,0-3.51.09-3.59,3.61-3.6,6.7,0,13.41,0,20.12,0a12,12,0,0,0,5.07-1c7.39-3.23,14.86-6.27,22.2-9.61a7.45,7.45,0,0,1,6.64.11c7.38,3.26,14.81,6.39,22.2,9.62a10.26,10.26,0,0,0,4.22.9c6.32,0,12.64,0,19,0,3.17,0,3.33-.15,3.35-3.25,0-4.86,0-9.71,0-14.57V592.6c0-.78-.05-1.56,0-2.33.13-1.49-.59-3.37,1-4.28,1.83-1,3.86-1.89,6.11-1.15l2.22.71a2.27,2.27,0,0,1,1.75,2.38c0,1.06,0,2.13,0,3.2V716.68c0,3.86.62,4.35,4.44,3.87,1.21-.15,1.72-.72,1.72-1.87l0-3.5c0-3.73.09-3.79,3.69-3.88l1.46,0a1.64,1.64,0,0,0,1.82-1.8c0-1.16,0-2.33,0-3.49,0-3-.12-6,1-8.91a11.84,11.84,0,0,0,.31-4.33q0-30.74,0-61.47a36.26,36.26,0,0,1,.42-5.8,4.1,4.1,0,0,1,1.77-3.2,2.46,2.46,0,0,0,1.13-2.49c0-1.45,0-2.91,0-4.36-.07-1.88-.16-3.7,1.73-4.91.72-.46.71-1.35.72-2.13,0-1.55,0-3.11,0-4.66,0-1.77.05-3.45,1.24-5a5.18,5.18,0,0,0,.78-2.46c.19-1.44.43-2.69,2.21-2.91a1,1,0,0,0,.81-1.08c.16-3.06,3-4.93,3.49-7.86.16-.87,1.23-.78,2-.88,4.55-.64,9.12-.25,13.69-.4,1.06,0,2.13,0,3.2-.06a1.59,1.59,0,0,0,1.73-1.58c.08-.94,0-1.9-1.12-2.07-1.74-.27-1.85-1.45-1.85-2.77,0-4.28,0-8.55,0-12.82,0-2.38.19-2.48,2.72-2.8.28,0,.58,0,.87-.08,3-.54,3.32-.89,3.33-4s0-6.21,0-9.32c0-.68,0-1.36,0-2s.16-1.64,1.24-1.59,1.12.92,1.19,1.69,0,1.36.06,2c0,3.11,0,6.22,0,9.33,0,2.88.41,3.32,3.19,3.86,3.72.72,3.73.72,3.74,4.59q0,5.4,0,10.78c0,1.49,0,3-2.13,3.12-1.15.09-1.18,1.1-1.15,2a1.52,1.52,0,0,0,1.61,1.67c1.65.07,3.31.15,5,.11,3.21-.1,6.4.26,9.61.35a2.71,2.71,0,0,1,2.35.9c1,1.47,2.52,1.59,4.13,1.65,2.4.09,2.56.31,3,2.64a5.21,5.21,0,0,0,.1.57c.46,1.37,0,3,1.08,4.16s2.58.52,3.88.71c1,.14,1.66.61,1.73,1.63a5.06,5.06,0,0,0,1.27,3.16c.67.76.49,1.84.5,2.8,0,3.5,0,7,0,10.49,0,1.65.27,2.89,2.31,2.9,1.16,0,1.62.91,2,1.88a20.77,20.77,0,0,1,1.52,5.9c0,1.27.61,2,2,2,1.74-.1,2.35,1,2.81,2.39a27.23,27.23,0,0,1,1.68,9.4c-.15,4.65-.07,9.32,0,14,0,2.62.23,2.78,2.78,3,2.9.3,3,.37,3.09,3.38,0,.48,0,1,0,1.45a1.74,1.74,0,0,0,2,1.93c2,0,4.08,0,6.12,0,1.32,0,2.56.05,2.94,1.69.21.88.91,1.09,1.73,1.29,2.28.53,2.3.57,2.37,2.84,0,1.36,0,2.72,0,4.08v34.37c0,.68,0,1.36,0,2,0,3.77,0,3.78,3.66,3.8h3.79c4.27,0,4.27,0,4.28,4.42,0,3.1,0,6.21,0,9.32s.13,3.15,3.08,3.17c4.67,0,9.33,0,14,0,1.25,0,2.51.08,3.76.12v40.2H-.83ZM1046.79,641.88h0c0,2.61,0,5.22,0,7.84,0,2.22.31,2.58,1.81,2.61s2-.47,2.08-2.71c0-1.65,0-3.3,0-4.94,0-3.78,0-7.55,0-11.33,0-1.73-.58-2.2-2-2.19s-1.81.43-1.84,2.29C1046.76,636.26,1046.79,639.07,1046.79,641.88Zm6.94-.11h0c0,2.91,0,5.82,0,8.72,0,1.55.74,2,2.27,1.84s1.58-1.21,1.58-2.31c0-5.53,0-11,0-16.57,0-1.83-.48-2.26-1.9-2.29s-1.93.41-2,2.47C1053.69,636.34,1053.73,639.06,1053.73,641.77Z" transform="translate(1.83 -31.18)"/></g><g id="Ribbon"><polygon class="cls-2" points="1029.83 413.13 877.81 413.13 877.81 341.04 1029.83 341.04 1002.55 377.09 1029.83 413.13"/><polygon class="cls-2" points="342.47 399.1 494.5 399.1 494.5 327 342.47 327 369.76 363.05 342.47 399.1"/><path class="cls-3" d="M876,412v32.12l58.46-33.59S902,413.17,876,412Z" transform="translate(1.83 -31.18)"/><path class="cls-3" d="M495.51,389l-2.84,41.25L434.2,410.56S469.49,390.18,495.51,389Z" transform="translate(1.83 -31.18)"/><line class="cls-4" x1="350.83" y1="332.82" x2="354.83" y2="332.82"/><line class="cls-5" x1="362.38" y1="332.82" x2="434.06" y2="332.82"/><line class="cls-4" x1="437.83" y1="332.82" x2="441.83" y2="332.82"/><line class="cls-4" x1="897.83" y1="407.82" x2="901.83" y2="407.82"/><line class="cls-6" x1="910.14" y1="407.82" x2="1005.68" y2="407.82"/><line class="cls-4" x1="1009.83" y1="407.82" x2="1013.83" y2="407.82"/><line class="cls-4" x1="900.83" y1="346.82" x2="904.83" y2="346.82"/><line class="cls-7" x1="912.5" y1="346.82" x2="1016" y2="346.82"/><line class="cls-4" x1="1019.83" y1="346.82" x2="1023.83" y2="346.82"/><path class="cls-2" d="M934.44,410.56c-166.75,60.73-333.49-60.74-500.24,0v-69c166.75-60.74,333.49,60.74,500.24,0Z" transform="translate(1.83 -31.18)"/><path class="cls-4" d="M68.62,229" transform="translate(1.83 -31.18)"/><path class="cls-4" d="M437.62,346c1.27-.43,2.54-.84,3.8-1.25" transform="translate(1.83 -31.18)"/><path class="cls-8" d="M449,342.47c156.1-45,312.19,58.17,468.29,10.52" transform="translate(1.83 -31.18)"/><path class="cls-4" d="M921.11,351.8l3.8-1.25" transform="translate(1.83 -31.18)"/><path class="cls-4" d="M440.35,399.21c1.27-.43,2.54-.84,3.8-1.25" transform="translate(1.83 -31.18)"/><path class="cls-8" d="M451.76,395.65c156.1-45,312.19,58.17,468.29,10.52" transform="translate(1.83 -31.18)"/><path class="cls-4" d="M923.85,405c1.26-.41,2.53-.82,3.8-1.25" transform="translate(1.83 -31.18)"/><line class="cls-4" x1="353.83" y1="393.82" x2="357.83" y2="393.82"/><line class="cls-7" x1="365.5" y1="393.82" x2="469" y2="393.82"/><line class="cls-4" x1="472.84" y1="393.82" x2="476.84" y2="393.82"/></g><g id="Text"><text x="1.83" y="-31.18"/><text class="cls-9" transform="translate(540.99 153.3)">ERIC</text><text class="cls-9" transform="translate(505.74 303.27)">NJUKI</text><text class="cls-10" transform="translate(459.02 349.1) rotate(-12.77) scale(1.18 1)"> </text><text class="cls-10" transform="translate(467.9 347.09) rotate(-10.91) scale(1.18 1)"> </text><text class="cls-10" transform="translate(476.83 345.36) rotate(-9.09) scale(1.18 1)"> </text><text class="cls-10" transform="translate(485.81 343.92) rotate(-7.31) scale(1.18 1)"> </text><text class="cls-10" transform="translate(494.83 342.76) rotate(-5.6) scale(1.18 1)"> </text><text class="cls-10" transform="translate(503.84 341.81) rotate(-3.36) scale(1.18 1)">F</text><text class="cls-10" transform="translate(519.63 340.82) rotate(-0.36) scale(1.18 1)">U</text><text class="cls-10" transform="matrix(1.18, 0.05, -0.04, 1, 540.18, 340.75)">L</text><text class="cls-10" transform="translate(555.97 341.39) rotate(4.33) scale(1.18 1)">L</text><text class="cls-10" transform="translate(571.78 342.63) rotate(5.74) scale(1.18 1)"> </text><text class="cls-10" transform="translate(580.89 343.48) rotate(7.14) scale(1.18 1)">S</text><text class="cls-10" transform="translate(600.45 345.96) rotate(8.57) scale(1.18 1)">T</text><text class="cls-10" transform="translate(616.45 348.37) rotate(9.63) scale(1.18 1)">A</text><text class="cls-10" transform="translate(635.14 351.54) rotate(10.42) scale(1.18 1)">C</text><text class="cls-10" transform="translate(654.98 355.21) rotate(10.81) scale(1.18 1)">K</text><text class="cls-10" transform="matrix(1.16, 0.22, -0.19, 0.98, 672.98, 358.65)"> </text><text class="cls-10" transform="translate(682.1 360.41) rotate(10.66) scale(1.18 1)">D</text><text class="cls-10" transform="matrix(1.16, 0.21, -0.18, 0.98, 702.34, 364.22)">E</text><text class="cls-10" transform="matrix(1.17, 0.19, -0.16, 0.99, 718.96, 367.2)">V</text><text class="cls-10" transform="matrix(1.17, 0.17, -0.14, 0.99, 737.18, 370.16)">E</text><text class="cls-10" transform="translate(754.36 372.59) rotate(6.57) scale(1.18 1)">L</text><text class="cls-10" transform="translate(770.94 374.55) rotate(4.51) scale(1.18 1)">O</text><text class="cls-10" transform="matrix(1.18, 0.04, -0.03, 1, 792.93, 376.26)">P</text><text class="cls-10" transform="translate(813.37 376.84) rotate(-1.14) scale(1.18 1)">E</text><text class="cls-10" transform="translate(831.43 376.51) rotate(-4.51) scale(1.18 1)">R</text></g></svg>